<svg width="34" height="42" viewBox="0 0 34 42" fill="none" xmlns="http://www.w3.org/2000/svg">
<path d="M18.75 14.5833H30.2083L18.75 3.125V14.5833ZM4.16667 0H20.8333L33.3333 12.5V37.5C33.3333 38.6051 32.8943 39.6649 32.1129 40.4463C31.3315 41.2277 30.2717 41.6667 29.1667 41.6667H4.16667C3.0616 41.6667 2.00179 41.2277 1.22039 40.4463C0.438987 39.6649 0 38.6051 0 37.5V4.16667C0 3.0616 0.438987 2.00179 1.22039 1.22039C2.00179 0.438987 3.0616 0 4.16667 0ZM14.4375 21.75C15.2917 23.625 16.375 25.1667 17.625 26.2292L18.4792 26.8958C16.6667 27.2292 14.1667 27.8125 11.5208 28.8333L11.2917 28.9167L12.3333 26.75C13.2708 24.9375 13.9583 23.2917 14.4375 21.75ZM27.9375 29.6875C28.3125 29.3125 28.5 28.8333 28.5208 28.3125C28.5833 27.8958 28.4792 27.5 28.2708 27.1667C27.6667 26.1875 26.1042 25.7292 23.5208 25.7292L20.8333 25.875L19.0208 24.6667C17.7083 23.5833 16.5208 21.6875 15.6875 19.3333L15.7708 19.0417C16.4583 16.2708 17.1042 12.9167 15.7292 11.5417C15.561 11.3784 15.362 11.2501 15.1439 11.1642C14.9257 11.0784 14.6927 11.0367 14.4583 11.0417H13.9583C13.1875 11.0417 12.5 11.8542 12.3125 12.6458C11.5417 15.4167 12 16.9375 12.7708 19.4583V19.4792C12.25 21.3125 11.5833 23.4375 10.5208 25.5833L8.52083 29.3333L6.66667 30.3542C4.16667 31.9167 2.97917 33.6667 2.75 34.7708C2.66667 35.1667 2.70833 35.5208 2.85417 35.8958L2.91667 36L3.91667 36.6458L4.83333 36.875C6.52083 36.875 8.4375 34.8958 11.0208 30.4792L11.3958 30.3333C13.5417 29.6458 16.2083 29.1667 19.7917 28.7708C21.9375 29.8333 24.4583 30.3125 26.0417 30.3125C26.9583 30.3125 27.5833 30.0833 27.9375 29.6875ZM27.0833 28.2083L27.2708 28.4375C27.25 28.6458 27.1875 28.6667 27.0833 28.7083H27L26.6042 28.75C25.6458 28.75 24.1667 28.3542 22.6458 27.6875C22.8333 27.4792 22.9167 27.4792 23.125 27.4792C26.0417 27.4792 26.875 28 27.0833 28.2083ZM7.97917 31.25C6.625 33.7292 5.39583 35.1042 4.45833 35.4167C4.5625 34.625 5.5 33.25 6.97917 31.8958L7.97917 31.25ZM14.2708 16.8542C13.7917 14.9792 13.7708 13.4583 14.125 12.5833L14.2708 12.3333L14.5833 12.4375C14.9375 12.9375 14.9792 13.6042 14.7708 14.7292L14.7083 15.0625L14.375 16.7708L14.2708 16.8542Z" fill="#EF5350"/>
</svg>
