<svg width="24" height="24" viewBox="0 0 24 24" fill="none" xmlns="http://www.w3.org/2000/svg">
<path d="M15.393 4.17411L14.891 4.73111L15.393 4.17411ZM19.352 7.73711L18.85 8.29411L19.352 7.73711ZM21.654 10.2741L20.969 10.5791L21.654 10.2741ZM3.172 20.9481L3.702 20.4181L3.172 20.9481ZM20.828 20.9481L20.298 20.4181L20.828 20.9481ZM14 21.3701H10V22.8701H14V21.3701ZM2.75 14.1201V10.1201H1.25V14.1201H2.75ZM21.25 13.6831V14.1201H22.75V13.6831H21.25ZM14.891 4.73011L18.85 8.29311L19.853 7.17811L15.895 3.61511L14.891 4.73011ZM22.75 13.6821C22.75 11.9931 22.765 10.9241 22.34 9.96811L20.969 10.5781C21.235 11.1761 21.25 11.8611 21.25 13.6821H22.75ZM18.85 8.29311C20.203 9.51111 20.703 9.98111 20.969 10.5781L22.339 9.96811C21.913 9.01111 21.109 8.30811 19.853 7.17811L18.85 8.29311ZM10.03 2.87011C11.612 2.87011 12.209 2.88211 12.74 3.08611L13.278 1.68611C12.426 1.35811 11.498 1.37011 10.03 1.37011V2.87011ZM15.895 3.61611C14.809 2.63911 14.13 2.01211 13.278 1.68611L12.741 3.08611C13.273 3.29011 13.721 3.67811 14.891 4.73111L15.895 3.61611ZM10 21.3701C8.093 21.3701 6.739 21.3681 5.71 21.2301C4.705 21.0951 4.125 20.8411 3.702 20.4181L2.642 21.4781C3.39 22.2281 4.339 22.5591 5.511 22.7171C6.661 22.8721 8.136 22.8701 10 22.8701V21.3701ZM1.25 14.1201C1.25 15.9841 1.248 17.4581 1.403 18.6091C1.561 19.7811 1.893 20.7301 2.641 21.4791L3.701 20.4191C3.279 19.9951 3.025 19.4151 2.89 18.4091C2.752 17.3821 2.75 16.0271 2.75 14.1201H1.25ZM14 22.8701C15.864 22.8701 17.338 22.8721 18.489 22.7171C19.661 22.5591 20.61 22.2271 21.359 21.4791L20.299 20.4191C19.875 20.8411 19.295 21.0951 18.289 21.2301C17.262 21.3681 15.907 21.3701 14 21.3701V22.8701ZM21.25 14.1201C21.25 16.0271 21.248 17.3821 21.11 18.4101C20.975 19.4151 20.721 19.9951 20.298 20.4181L21.358 21.4781C22.108 20.7301 22.439 19.7811 22.597 18.6091C22.752 17.4591 22.75 15.9841 22.75 14.1201H21.25ZM2.75 10.1201C2.75 8.21311 2.752 6.85911 2.89 5.83011C3.025 4.82511 3.279 4.24511 3.702 3.82211L2.642 2.76211C1.892 3.51011 1.561 4.45911 1.403 5.63111C1.248 6.78111 1.25 8.25611 1.25 10.1201H2.75ZM10.03 1.37011C8.155 1.37011 6.674 1.36811 5.519 1.52311C4.342 1.68111 3.39 2.01311 2.641 2.76111L3.701 3.82111C4.125 3.39911 4.706 3.14511 5.718 3.01011C6.751 2.87211 8.113 2.87011 10.03 2.87011V1.37011Z" fill="#E41718"/>
<path d="M13 2.62012V5.12012C13 7.47712 13 8.65612 13.732 9.38812C14.464 10.1201 15.643 10.1201 18 10.1201H22" stroke="#E41718" stroke-width="1.5"/>
<path d="M6 16.6201L7.333 18.1201L10 15.1201" stroke="#E41718" stroke-width="1.5" stroke-linecap="round" stroke-linejoin="round"/>
</svg>
