<svg width="24" height="24" viewBox="0 0 24 24" fill="none" xmlns="http://www.w3.org/2000/svg">
<path d="M22 22.1201H2" stroke="#E41718" stroke-width="1.5" stroke-linecap="round"/>
<path d="M20.9999 22.1201V6.12012C20.9999 4.23412 20.9999 3.29212 20.4139 2.70612C19.8279 2.12012 18.8859 2.12012 16.9999 2.12012H14.9999C13.1139 2.12012 12.1719 2.12012 11.5859 2.70612C11.1139 3.17712 11.0219 3.88012 11.0039 5.12012" stroke="#E41718" stroke-width="1.5"/>
<path d="M15 22.1201V9.12012C15 7.23412 15 6.29212 14.414 5.70612C13.828 5.12012 12.886 5.12012 11 5.12012H7C5.114 5.12012 4.172 5.12012 3.586 5.70612C3 6.29212 3 7.23412 3 9.12012V22.1201" stroke="#E41718" stroke-width="1.5"/>
<path d="M9 22.1201V19.1201M6 8.12012H12M6 11.1201H12M6 14.1201H12" stroke="#E41718" stroke-width="1.5" stroke-linecap="round"/>
</svg>
