<svg width="40" height="40" viewBox="0 0 40 40" fill="none" xmlns="http://www.w3.org/2000/svg">
<rect x="0.5" y="0.5" width="39" height="39" rx="19.5" fill="#E41718"/>
<rect x="0.5" y="0.5" width="39" height="39" rx="19.5" stroke="white"/>
<path d="M15.834 17.6818C15.834 18.6017 16.5808 19.3485 17.5007 19.3485C18.4205 19.3485 19.1673 18.6017 19.1673 17.6818C19.1673 16.7619 18.4205 16.0151 17.5007 16.0151C16.5808 16.0151 15.834 16.7619 15.834 17.6818V17.6818" stroke="white" stroke-width="1.25"/>
<path d="M20.8346 22.6818C20.8346 23.6026 20.8346 24.3485 17.5013 24.3485C14.168 24.3485 14.168 23.6026 14.168 22.6818C14.168 21.761 15.6596 21.0151 17.5013 21.0151C19.343 21.0151 20.8346 21.761 20.8346 22.6818V22.6818" stroke="white" stroke-width="1.25"/>
<path d="M11.668 20.1818C11.668 17.0393 11.668 15.4676 12.6446 14.4918C13.6213 13.516 15.1921 13.5151 18.3346 13.5151H21.668C24.8105 13.5151 26.3821 13.5151 27.358 14.4918C28.3338 15.4685 28.3346 17.0393 28.3346 20.1818C28.3346 23.3243 28.3346 24.896 27.358 25.8718C26.3813 26.8476 24.8105 26.8485 21.668 26.8485H18.3346C15.1921 26.8485 13.6205 26.8485 12.6446 25.8718C11.6688 24.8951 11.668 23.3243 11.668 20.1818V20.1818" stroke="white" stroke-width="1.25"/>
<path d="M25.8346 20.1812H22.5013M25.8346 17.6812H21.668M25.8346 22.6812H23.3346" stroke="white" stroke-width="1.25" stroke-linecap="round"/>
</svg>
