<svg width="24" height="24" viewBox="0 0 24 24" fill="none" xmlns="http://www.w3.org/2000/svg">
<path d="M7 18.1181C4.825 18.1061 3.647 18.0101 2.879 17.2411C2 16.3631 2 14.9481 2 12.1201V8.12012C2 5.29212 2 3.87712 2.879 2.99912C3.757 2.12012 5.172 2.12012 8 2.12012H16C18.828 2.12012 20.243 2.12012 21.121 2.99912C22 3.87712 22 5.29212 22 8.12012V12.1201C22 14.9481 22 16.3631 21.121 17.2411C20.391 17.9711 19.292 18.0951 17.32 18.1161L16.5 18.1181" stroke="#E41718" stroke-width="1.5"/>
<path d="M9 6.12012H15M7 9.62012H17" stroke="#E41718" stroke-width="1.5" stroke-linecap="round"/>
<path d="M10.8905 14.065C11.5299 13.5194 12.4711 13.5194 13.1105 14.065C13.3835 14.299 13.7245 14.44 14.0825 14.469C14.9199 14.5351 15.5853 15.1996 15.6525 16.037C15.6805 16.397 15.8215 16.737 16.0545 17.011C16.599 17.6501 16.599 18.5899 16.0545 19.229C15.8204 19.5028 15.6792 19.8438 15.6515 20.203C15.5849 21.0404 14.9199 21.7054 14.0825 21.772C13.7237 21.7999 13.383 21.9411 13.1095 22.175C12.4702 22.7201 11.5297 22.7201 10.8905 22.175C10.6171 21.9407 10.2764 21.7992 9.91749 21.771C9.08045 21.7044 8.41557 21.04 8.34849 20.203C8.32074 19.8438 8.17962 19.5028 7.94549 19.229C7.40098 18.5899 7.40098 17.6501 7.94549 17.011C8.17962 16.7372 8.32074 16.3962 8.34849 16.037C8.41564 15.1996 9.08106 14.5351 9.91849 14.469C10.2765 14.44 10.6175 14.299 10.8915 14.065H10.8905" stroke="#E41718" stroke-width="1.5"/>
<path d="M10.5 18.3201L11.357 19.1201L13.5 17.1201" stroke="#E41718" stroke-width="1.5" stroke-linecap="round" stroke-linejoin="round"/>
</svg>
