<svg width="18" height="18" viewBox="0 0 18 18" fill="none" xmlns="http://www.w3.org/2000/svg">
<path d="M18 10.4585C18 10.1145 16.5525 10.2085 16.4375 9.9585C16.3225 9.7085 18.0415 7.6665 17.7915 7.2085C17.5415 6.7505 15.2485 7.792 15.104 7.5625C14.96 7.3335 15.25 5.8125 15 5.625C14.75 5.4375 12.375 8.083 12.0415 7.771C11.708 7.459 12.8125 2.521 12.5845 2.422C12.3565 2.323 10.875 3.1045 10.688 3.063C10.501 3.021 9.341 0 9 0C8.659 0 7.499 3.021 7.312 3.0625C7.125 3.104 5.6435 2.3225 5.4155 2.4215C5.1875 2.5205 6.2915 7.458 5.958 7.7705C5.625 8.083 3.25 5.4375 3 5.625C2.75 5.8125 3.04 7.3335 2.896 7.5625C2.7515 7.7915 0.4585 6.75 0.2085 7.2085C-0.0415 7.667 1.678 9.7085 1.5625 9.9585C1.447 10.2085 0 10.1145 0 10.4585C0 10.8025 4.219 13.076 4.5 13.344C4.781 13.612 3.043 14.745 3.2915 14.9585C3.5795 15.2065 5.211 14.5435 8.5 14.48V17.5C8.5 17.6326 8.55268 17.7598 8.64645 17.8536C8.74021 17.9473 8.86739 18 9 18C9.13261 18 9.25979 17.9473 9.35355 17.8536C9.44732 17.7598 9.5 17.6326 9.5 17.5V14.48C12.7885 14.5435 14.4205 15.2065 14.7085 14.9585C14.9565 14.7445 13.219 13.6115 13.5 13.344C13.781 13.0765 18 10.802 18 10.4585Z" fill="#DD2E44"/>
</svg>
