<svg width="40" height="40" viewBox="0 0 40 40" fill="none" xmlns="http://www.w3.org/2000/svg">
<rect x="0.5" y="0.5" width="39" height="39" rx="19.5" fill="#E41718"/>
<rect x="0.5" y="0.5" width="39" height="39" rx="19.5" stroke="white"/>
<path d="M15.1862 14.0149C15.5551 13.7686 15.9439 13.5537 16.3487 13.3724C17.4921 12.8599 18.0637 12.6041 18.8237 13.0974C19.5846 13.5891 19.5846 14.3974 19.5846 16.0141V17.2641C19.5846 18.8358 19.5846 19.6208 20.0729 20.1091C20.5612 20.5974 21.3462 20.5974 22.9179 20.5974H24.1679C25.7846 20.5974 26.5929 20.5974 27.0846 21.3574C27.5779 22.1183 27.3221 22.6899 26.8096 23.8324C25.3005 27.2025 21.662 29.0817 18.0404 28.3616C14.9001 27.7369 12.4452 25.2821 11.8205 22.1418C11.1957 19.0014 12.5241 15.794 15.1862 14.0149V14.0149" stroke="white" stroke-width="1.25"/>
<path d="M27.873 16.072C27.1928 14.3517 25.8308 12.9897 24.1105 12.3095C22.8255 11.8037 21.668 12.9678 21.668 14.3478V17.6812C21.668 18.1414 22.0411 18.5145 22.5013 18.5145H25.8346C27.2155 18.5145 28.3788 17.3562 27.873 16.072V16.072" stroke="white" stroke-width="1.25"/>
</svg>
