<svg width="24" height="24" viewBox="0 0 24 24" fill="none" xmlns="http://www.w3.org/2000/svg">
<path d="M4 10.2631C4 5.76612 7.582 2.12012 12 2.12012C16.418 2.12012 20 5.76612 20 10.2631C20 14.7251 17.447 19.9331 13.463 21.7941C12.536 22.2282 11.464 22.2282 10.537 21.7941C6.553 19.9321 4 14.7261 4 10.2641V10.2631" stroke="#E41718" stroke-width="1.5"/>
<path d="M9 10.1201C9 11.7759 10.3443 13.1201 12 13.1201C13.6557 13.1201 15 11.7759 15 10.1201C15 8.46437 13.6557 7.12012 12 7.12012C10.3443 7.12012 9 8.46437 9 10.1201V10.1201" stroke="#E41718" stroke-width="1.5"/>
</svg>
