<svg width="40" height="40" viewBox="0 0 40 40" fill="none" xmlns="http://www.w3.org/2000/svg">
<rect x="0.5" y="0.5" width="39" height="39" rx="19.5" fill="#E41718"/>
<rect x="0.5" y="0.5" width="39" height="39" rx="19.5" stroke="white"/>
<path d="M11.668 23.5146C11.668 21.158 11.668 19.9788 12.4005 19.2471C13.1321 18.5146 14.3113 18.5146 16.668 18.5146H23.3346C25.6913 18.5146 26.8705 18.5146 27.6021 19.2471C28.3346 19.9788 28.3346 21.158 28.3346 23.5146C28.3346 25.8713 28.3346 27.0505 27.6021 27.7821C26.8705 28.5146 25.6913 28.5146 23.3346 28.5146H16.668C14.3113 28.5146 13.1321 28.5146 12.4005 27.7821C11.668 27.0505 11.668 25.8713 11.668 23.5146V23.5146" stroke="white" stroke-width="1.25"/>
<path d="M18.334 23.5143C18.334 24.4342 19.0808 25.181 20.0007 25.181C20.9205 25.181 21.6673 24.4342 21.6673 23.5143C21.6673 22.5945 20.9205 21.8477 20.0007 21.8477C19.0808 21.8477 18.334 22.5945 18.334 23.5143V23.5143" stroke="white" stroke-width="1.25"/>
<path d="M15 18.5143V16.8477C15 14.0881 17.2404 11.8477 20 11.8477C22.7596 11.8477 25 14.0881 25 16.8477V18.5143" stroke="white" stroke-width="1.25" stroke-linecap="round"/>
</svg>
